<svg width="25" height="25" viewBox="0 0 25 25" fill="none" xmlns="http://www.w3.org/2000/svg">
<path fill-rule="evenodd" clip-rule="evenodd" d="M12.5005 0C5.59667 0 0 5.59769 0 12.5005C0 19.4043 5.59667 25 12.5005 25C19.4043 25 25.001 19.4043 25.001 12.5005C25.001 5.59769 19.4038 0 12.5005 0ZM15.8087 12.448H13.6441C13.6441 15.907 13.6441 20.1676 13.6441 20.1676H10.4359C10.4359 20.1676 10.4359 15.9507 10.4359 12.448H8.90991V9.72249H10.4359V7.95643C10.4359 6.69241 11.0359 4.71924 13.6741 4.71924L16.0498 4.72838V7.37569C16.0498 7.37569 14.6051 7.37569 14.3249 7.37569C14.0431 7.37569 13.6446 7.51631 13.6446 8.11735V9.72299H16.0904L15.8087 12.448Z" fill="#3CDBE4"/>
</svg>
