<svg width="25" height="25" viewBox="0 0 25 25" fill="none" xmlns="http://www.w3.org/2000/svg">
<path d="M12.5 0C19.4106 0 25.0508 5.58943 25 12.5C25 19.4106 19.4106 25 12.5 25C5.58943 25 0 19.4106 0 12.5C0 5.58943 5.58943 0 12.5 0ZM9.6543 5.89453C7.26611 5.89455 5.69141 7.52101 5.69141 9.8584V15.4473C5.69141 16.6159 6.04655 17.6324 6.80859 18.3438C7.51997 19.0551 8.53642 19.4111 9.6543 19.4111H15.1934C16.311 19.411 17.3268 19.055 18.0381 18.3438C18.7495 17.6324 19.1562 16.616 19.1562 15.4473V9.8584C19.1562 8.6897 18.8002 7.72408 18.0889 7.0127C17.3776 6.30151 16.4126 5.89462 15.2441 5.89453H9.6543ZM12.3984 9.14648C14.278 9.1469 15.9039 10.6713 15.9043 12.6016C15.9043 14.5322 14.329 16.0572 12.3984 16.0576C10.4675 16.0576 8.94336 14.4816 8.94336 12.6016C8.94374 10.671 10.5186 9.14648 12.3984 9.14648ZM12.3984 10.3965C11.1885 10.3965 10.1937 11.3817 10.1934 12.6016C10.1934 13.8117 11.1782 14.8076 12.3984 14.8076C13.6541 14.8072 14.6543 13.8265 14.6543 12.6016C14.6539 11.3968 13.6234 10.3969 12.3984 10.3965ZM16.0059 8.18164C16.4632 8.18164 16.8193 8.53683 16.8193 8.99414C16.8193 9.45146 16.4632 9.80762 16.0059 9.80762C15.5486 9.80761 15.1934 9.45145 15.1934 8.99414C15.1934 8.53684 15.5486 8.18165 16.0059 8.18164Z" fill="#3CDBE4"/>
</svg>
