<svg width="30" height="30" viewBox="0 0 30 30" fill="none" xmlns="http://www.w3.org/2000/svg">
<circle cx="14.5" cy="14.5" r="12.5" fill="#3CDBE4"/>
<path d="M20.125 9H8.875C8.37788 9.00054 7.90128 9.20185 7.54976 9.55976C7.19825 9.91766 7.00053 10.4029 7 10.9091V19.0909C7.00053 19.5971 7.19825 20.0823 7.54976 20.4402C7.90128 20.7981 8.37788 20.9995 8.875 21H20.125C20.6221 20.9995 21.0987 20.7981 21.4502 20.4402C21.8018 20.0823 21.9995 19.5971 22 19.0909V10.9091C21.9995 10.4029 21.8018 9.91766 21.4502 9.55976C21.0987 9.20185 20.6221 9.00054 20.125 9ZM19.6502 12.1578L14.8288 15.976C14.7348 16.0504 14.6191 16.0908 14.5 16.0908C14.3809 16.0908 14.2652 16.0504 14.1712 15.976L9.34978 12.1578C9.29313 12.1143 9.24555 12.0597 9.2098 11.9973C9.17405 11.9348 9.15085 11.8658 9.14153 11.7941C9.13222 11.7225 9.13699 11.6496 9.15556 11.5799C9.17413 11.5101 9.20613 11.4448 9.2497 11.3878C9.29327 11.3307 9.34754 11.283 9.40937 11.2475C9.47119 11.212 9.53933 11.1893 9.60983 11.1809C9.68032 11.1724 9.75177 11.1783 9.82002 11.1982C9.88826 11.218 9.95195 11.2515 10.0074 11.2967L14.5 14.8544L18.9926 11.2967C19.105 11.2103 19.2462 11.1724 19.3857 11.1912C19.5253 11.21 19.652 11.284 19.7384 11.3972C19.8248 11.5103 19.864 11.6536 19.8475 11.7959C19.831 11.9383 19.7601 12.0683 19.6502 12.1578Z" fill="white"/>
</svg>
