<svg width="28" height="28" viewBox="0 0 28 28" fill="none" xmlns="http://www.w3.org/2000/svg">
<path fill-rule="evenodd" clip-rule="evenodd" d="M12.8596 2.59816C12.8596 1.96847 13.3701 1.45801 13.9997 1.45801C20.9274 1.45801 26.5414 7.07392 26.5414 13.9997C26.5414 20.9255 20.9274 26.5413 13.9997 26.5413C13.3701 26.5413 12.8596 26.0309 12.8596 25.4012C12.8596 24.7715 13.3701 24.2611 13.9997 24.2611C19.6677 24.2611 24.261 19.6663 24.261 13.9997C24.261 8.33308 19.6677 3.73832 13.9997 3.73832C13.3701 3.73832 12.8596 3.22785 12.8596 2.59816ZM11.6586 2.80065C11.8616 3.39672 11.543 4.0445 10.9469 4.24751C9.70755 4.66962 8.54719 5.28997 7.54138 6.0692C7.04359 6.45484 6.32745 6.36393 5.94181 5.86615C5.55618 5.36837 5.64708 4.65221 6.14486 4.26657C7.35616 3.32815 8.74134 2.58977 10.2118 2.08896C10.8078 1.88595 11.4556 2.20459 11.6586 2.80065ZM4.67848 7.26319C5.21321 7.5957 5.37714 8.29875 5.04462 8.83348C4.39082 9.88489 3.93837 11.0342 3.71915 12.2091C3.60365 12.8281 3.00822 13.2363 2.38922 13.1208C1.77023 13.0053 1.36206 12.4099 1.47756 11.7908C1.75101 10.3252 2.3113 8.91084 3.10819 7.62932C3.44072 7.09459 4.14375 6.93067 4.67848 7.26319ZM2.38922 14.8785C3.00822 14.763 3.60365 15.1712 3.71915 15.7903C3.93837 16.9652 4.39082 18.1145 5.04462 19.1659C5.37714 19.7006 5.21321 20.4036 4.67848 20.7361C4.14376 21.0687 3.44072 20.9047 3.10819 20.37C2.3113 19.0886 1.75101 17.6741 1.47756 16.2085C1.36206 15.5895 1.77023 14.994 2.38922 14.8785ZM5.94685 22.1268C6.33606 21.6318 7.05285 21.546 7.54784 21.9352C8.54551 22.7197 9.70174 23.3278 10.9469 23.7518C11.543 23.9548 11.8616 24.6026 11.6586 25.1987C11.4556 25.7948 10.8078 26.1134 10.2118 25.9104C8.74714 25.4115 7.35785 24.6866 6.1384 23.7277C5.64341 23.3385 5.55765 22.6217 5.94685 22.1268Z" fill="#808485"/>
<path opacity="0.4" d="M10.2085 9.91667C10.2085 7.82258 11.906 6.125 14.0002 6.125C16.0943 6.125 17.7919 7.82258 17.7919 9.91667C17.7919 11.4178 16.9194 12.7151 15.6541 13.3295C18.5177 14.0556 20.6468 16.6235 20.7071 19.6986C20.7118 19.9335 20.6217 20.1605 20.4572 20.3283C18.8173 22.0012 16.5293 23.0408 14.0002 23.0408C11.471 23.0408 9.18311 22.0012 7.54313 20.3283C7.37862 20.1605 7.28853 19.9335 7.29314 19.6986C7.35348 16.6235 9.48266 14.0556 12.3462 13.3295C11.0808 12.7151 10.2085 11.4178 10.2085 9.91667Z" fill="#808485"/>
</svg>
